<?xml version="1.0" encoding="utf-8"?>
<!-- Generator: Adobe Illustrator 23.0.1, SVG Export Plug-In . SVG Version: 6.00 Build 0)  -->
<svg version="1.1" id="图层_1" xmlns="http://www.w3.org/2000/svg" xmlns:xlink="http://www.w3.org/1999/xlink" x="0px" y="0px"
	 viewBox="0 0 53.5 43" style="enable-background:new 0 0 53.5 43;" xml:space="preserve">
<style type="text/css">
	.st0{stroke:#000000;stroke-width:3;stroke-miterlimit:10;}
	.st1{fill:#FBD214;stroke:#FBD214;stroke-miterlimit:10;}
</style>
<g>
	<path class="st0" d="M13.8,39.5c-0.2,0-0.6,0-0.8,0c-0.8,0-5-0.4-7.4-2.2C-1,32.3,3.1,16.7,10,3.5l4.2,2.2
		c-7.9,15-8.4,25.7-5.7,27.7c1,0.7,3.4,1.2,4.7,1.2c4,0.1,7.1-1.7,8.6-2.8l2.9,3.9C22.8,37.2,18.9,39.5,13.8,39.5z"/>
</g>
<g>
	<path class="st0" d="M38.7,38.6c-5.6,0-8.6-1.2-9.8-3.9c-2.2-4.6,3.3-9.9,9.6-16.1c3-2.9,8.6-8.5,8.2-10.2l0,0
		c0,0-1.7-1.9-14.5,0.4l-0.8-4.7c12.1-2.2,18-1.5,19.9,2.3c2.2,4.5-3.1,9.7-9.3,15.6c-2.8,2.7-9.2,9.1-8.6,10.7
		c0,0,1.6,2.4,16.8-0.1l0.8,4.7C46,38.3,42,38.6,38.7,38.6z"/>
</g>
<polygon class="st1" points="24.8,17.5 26.1,16.1 26,17.9 27.8,17.9 26.5,19.2 27.8,20.5 26,20.4 26.1,22.2 24.8,20.9 23.6,22.2 
	23.6,20.4 21.7,20.5 23.1,19.2 21.7,17.9 23.6,17.9 23.6,16.1 "/>
</svg>
